<svg id="Icon_feather-shopping-cart" data-name="Icon feather-shopping-cart" xmlns="http://www.w3.org/2000/svg" width="29.116" height="27.929" viewBox="0 0 29.116 27.929">
  <path id="Caminho_77" data-name="Caminho 77" d="M15,31.5A1.5,1.5,0,1,1,13.5,30,1.5,1.5,0,0,1,15,31.5Z" transform="translate(-2.409 -6.571)" fill="none" stroke="#f9a825" stroke-linecap="round" stroke-linejoin="round" stroke-width="3"/>
  <path id="Caminho_78" data-name="Caminho 78" d="M31.5,31.5A1.5,1.5,0,1,1,30,30,1.5,1.5,0,0,1,31.5,31.5Z" transform="translate(-6.884 -6.571)" fill="none" stroke="#f9a825" stroke-linecap="round" stroke-linejoin="round" stroke-width="3"/>
  <path id="Caminho_79" data-name="Caminho 79" d="M1.5,1.5H6.248L9.43,15.72a2.329,2.329,0,0,0,2.374,1.71H23.343a2.329,2.329,0,0,0,2.374-1.71l1.9-8.91H7.436" fill="none" stroke="#f9a825" stroke-linecap="round" stroke-linejoin="round" stroke-width="3"/>
</svg>
