<svg id="Componente_2_1" data-name="Componente 2 – 1" xmlns="http://www.w3.org/2000/svg" width="118.75" height="118.508" viewBox="0 0 118.75 118.508">
  <g id="Grupo_2" data-name="Grupo 2" transform="translate(-2.75 -4.742)">
    <path id="Caminho_6" data-name="Caminho 6" d="M86.1,12.8a4.189,4.189,0,0,0-6.3-4.455,4.191,4.191,0,1,0-4.451,6.425l-3.207,14.9,5.866,1.263,3.207-14.9A4.192,4.192,0,0,0,86.1,12.8Z" fill="#eaeaf0"/>
    <path id="Caminho_7" data-name="Caminho 7" d="M85.682,53.73C82.726,67.461,74.267,74.224,66.01,72.447S52.825,61.024,55.78,47.294,68.455,20.946,76.713,22.723,88.637,40,85.682,53.73Z" fill="#d78759"/>
    <path id="Caminho_8" data-name="Caminho 8" d="M42.442,106.725c-33.2,0-41.469-22.6-18.36-36.475C51.139,54,49.46,40.829,72.94,36.983c31.848-4.264,44.083,10.8,44.083,26.2,0,21.017-7.377,41.858-38.415,43.545S42.442,106.725,42.442,106.725Z" fill="#f4a86c"/>
    <path id="Caminho_9" data-name="Caminho 9" d="M114.831,15.721a4.189,4.189,0,0,0-4.6-6.186A4.192,4.192,0,1,0,104,14.263L96.338,27.435l5.185,3.018,7.667-13.171a4.191,4.191,0,0,0,5.641-1.561Z" fill="#eaeaf0"/>
    <path id="Caminho_10" data-name="Caminho 10" d="M101.747,54.506c-7.065,12.138-17.2,15.947-24.5,11.7s-9-14.946-1.93-27.085S95.529,18,102.829,22.246,108.812,42.367,101.747,54.506Z" fill="#d78759"/>
    <path id="Caminho_11" data-name="Caminho 11" d="M12.922,110.667H115.077V121.5H12.922Z" fill="#d8d8d8"/>
    <path id="Caminho_12" data-name="Caminho 12" d="M6.5,97.808h115V103.5a12,12,0,0,1-12,12h-91a12,12,0,0,1-12-12Z" fill="#eaeaf0"/>
  </g>
  <g id="Grupo_3" data-name="Grupo 3" transform="translate(-4.75 -4.742)">
    <path id="Caminho_13" data-name="Caminho 13" d="M32.518,66.409a1.742,1.742,0,0,0,1.034-.339Q35.01,65,36.331,63.957a1.75,1.75,0,0,0-2.166-2.75q-1.28,1.008-2.684,2.041a1.75,1.75,0,0,0,1.037,3.161Z" fill="#041925"/>
    <path id="Caminho_14" data-name="Caminho 14" d="M121.5,96.058H108.61c6.745-7.583,10.16-18.616,10.16-32.878a26.364,26.364,0,0,0-10.217-21.417c.22-1.011.416-2.02.557-3.018a1.75,1.75,0,0,0-3.466-.49,43.418,43.418,0,0,1-5.409,15.371C97.047,59.1,93.117,63,88.868,64.9a11.534,11.534,0,0,1-10.744-.212C71.232,60.68,70.7,50.526,76.825,40a41.956,41.956,0,0,1,13.1-13.985c4.829-3.071,9.212-3.895,12.027-2.255,2.409,1.4,3.361,4.365,3.736,6.6a1.75,1.75,0,0,0,3.452-.578,15.634,15.634,0,0,0-1.962-5.573l2.792-4.79a5.944,5.944,0,1,0,1.349-11.756,5.946,5.946,0,1,0-9.563,6.976l-2.79,4.793c-3.241-.1-6.973,1.117-10.919,3.626a37.712,37.712,0,0,0-4.093,3.03,14.034,14.034,0,0,0-2.5-2.844l1.171-5.421A5.944,5.944,0,1,0,80.266,6.229a5.945,5.945,0,1,0-6.924,9.6l-1.171,5.424c-6.489,1.931-13.164,10.116-16.68,20.567A71.065,71.065,0,0,0,46,50.347c-2.334,2.359-4.746,4.8-7.739,7.439a1.75,1.75,0,0,0,2.316,2.625c3.082-2.72,5.648-5.314,7.912-7.6,6.883-6.961,11.856-11.99,24.678-14.092.139-.018.263-.031.4-.049-6.892,12.16-5.777,24.06,2.8,29.05a14.007,14.007,0,0,0,7.106,1.913A16.715,16.715,0,0,0,90.3,68.1c4.921-2.2,9.4-6.6,12.962-12.712a47.89,47.89,0,0,0,4.317-9.893A23.035,23.035,0,0,1,115.27,63.18c0,14.958-3.914,26.009-11.616,32.878H15.731a11.778,11.778,0,0,1-2.885-9.439c.761-5.346,5.071-10.626,12.135-14.869,1.316-.79,2.608-1.6,3.841-2.4a1.75,1.75,0,0,0-1.915-2.93c-1.2.782-2.45,1.567-3.728,2.335-7.985,4.8-12.886,10.966-13.8,17.376a14.849,14.849,0,0,0,2.031,9.932H6.5a1.75,1.75,0,0,0-1.75,1.75V103.5a13.74,13.74,0,0,0,6.42,11.613V121.5a1.75,1.75,0,0,0,1.75,1.75H115.08a1.75,1.75,0,0,0,1.75-1.75v-6.387a13.74,13.74,0,0,0,6.42-11.613V97.808a1.75,1.75,0,0,0-1.75-1.75ZM104.918,12.77a2.442,2.442,0,1,1,3.631-2.752,1.751,1.751,0,0,0,2.086,1.214,2.442,2.442,0,1,1-.6,4.513,1.751,1.751,0,0,0-2.352.654l-2.935,5.036a8.645,8.645,0,0,0-2.167-1.251l2.936-5.044a1.749,1.749,0,0,0-.594-2.37ZM73.951,10.189a2.453,2.453,0,0,1,2.9-1.889,2.491,2.491,0,0,1,1.52,1.03,1.75,1.75,0,0,0,2.351.506,2.442,2.442,0,1,1,.826,4.475,1.75,1.75,0,0,0-2.034,1.35l-1.233,5.707a9.381,9.381,0,0,0-1.192-.357,8.921,8.921,0,0,0-1.245-.172l1.23-5.7a1.751,1.751,0,0,0-1.3-2.072,2.418,2.418,0,0,1-1.823-2.878ZM72.657,35.254a44.078,44.078,0,0,0-12.295,3.7c3.494-7.828,8.828-13.681,13.606-14.542a5.945,5.945,0,0,1,2.365.018,6.247,6.247,0,0,1,2.188.965,10.24,10.24,0,0,1,2.82,3.116,47.87,47.87,0,0,0-5.355,6.36C74.952,34.969,73.865,35.094,72.657,35.254ZM119.75,103.5a10.261,10.261,0,0,1-10.25,10.25H53.125a1.75,1.75,0,0,0,0,3.5H109.5a13.686,13.686,0,0,0,3.83-.554v3.054H14.67V116.7a13.686,13.686,0,0,0,3.83.554H43.875a1.75,1.75,0,1,0,0-3.5H18.5A10.261,10.261,0,0,1,8.25,103.5V99.558h111.5Z" fill="#041925"/>
    <path id="Caminho_15" data-name="Caminho 15" d="M98.75,107.75H90.625a1.75,1.75,0,0,0,0,3.5H98.75a1.75,1.75,0,0,0,0-3.5Z" fill="#041925"/>
  </g>
</svg>
