<svg xmlns="http://www.w3.org/2000/svg" width="74.977" height="71.964" viewBox="0 0 74.977 71.964">
  <g id="comida" transform="matrix(0.469, 0.883, -0.883, 0.469, 49.559, -12.761)">
    <path id="Caminho_80" data-name="Caminho 80" d="M61.753,13.97a36.285,36.285,0,0,0-48.765,0,2.939,2.939,0,0,0-.651,3.478l2.22,4.437A2.963,2.963,0,0,0,17.2,23.516c.044,0,.085-.01.129-.012l7.013,14.027a13.984,13.984,0,0,1,1.469,6.224V54.9a2.913,2.913,0,0,0,5.826,0V52.122l4.966,9.932a.853.853,0,0,0,1.526,0l6.784-13.566a2.955,2.955,0,0,0,5.847-.611V42.492a.8.8,0,0,1,.795-.794h.518a2.5,2.5,0,0,0,2.5-2.5V31.273a8.192,8.192,0,0,1,.744-3.4l2.094-4.359a2.932,2.932,0,0,0,2.769-1.625L62.4,17.45a2.939,2.939,0,0,0-.651-3.48ZM53.778,27.144a9.929,9.929,0,0,0-.906,4.13V39.2a.8.8,0,0,1-.794.795H51.56a2.5,2.5,0,0,0-2.5,2.5v5.384a1.249,1.249,0,1,1-2.5,0V45a.853.853,0,0,0-1.617-.381L37.371,59.764,31.551,48.126a.853.853,0,0,0-1.616.381V54.9a1.206,1.206,0,0,1-2.413,0V43.755a15.7,15.7,0,0,0-1.65-6.987L18.945,22.912a2.88,2.88,0,0,0,.285-.234,25.671,25.671,0,0,1,36.282,0,2.95,2.95,0,0,0,.293.253Zm7.1-10.459-2.22,4.437a1.232,1.232,0,0,1-.915.672,1.17,1.17,0,0,1-1.024-.325,27.377,27.377,0,0,0-38.694,0A1.167,1.167,0,0,1,17,21.794a1.232,1.232,0,0,1-.915-.671l-2.22-4.437a1.227,1.227,0,0,1,.272-1.451,34.578,34.578,0,0,1,46.468,0,1.227,1.227,0,0,1,.271,1.451Z"/>
    <path id="Caminho_81" data-name="Caminho 81" d="M59.751,73.3a4.043,4.043,0,1,0,4.043,4.043A4.043,4.043,0,0,0,59.751,73.3Zm0,6.379a2.337,2.337,0,1,1,2.337-2.337,2.337,2.337,0,0,1-2.337,2.337Z" transform="translate(-22.381 -35.224)"/>
    <path id="Caminho_82" data-name="Caminho 82" d="M46.91,43.986a4.043,4.043,0,1,0-4.043,4.043A4.043,4.043,0,0,0,46.91,43.986Zm-4.043,2.336A2.336,2.336,0,1,1,45.2,43.985,2.336,2.336,0,0,1,42.867,46.322Z" transform="translate(-13.729 -18.131)"/>
    <path id="Caminho_83" data-name="Caminho 83" d="M76.635,48.909a4.043,4.043,0,1,0,4.043,4.043A4.043,4.043,0,0,0,76.635,48.909Zm0,6.379a2.337,2.337,0,1,1,2.336-2.336A2.337,2.337,0,0,1,76.635,55.288Z" transform="translate(-31.032 -22.726)"/>
    <path id="Caminho_84" data-name="Caminho 84" d="M63.369,45.281l1.422.92a.853.853,0,1,0,.926-1.433l-1.421-.92a.853.853,0,1,0-.926,1.433Z" transform="translate(-26.107 -20.063)"/>
    <path id="Caminho_85" data-name="Caminho 85" d="M84.779,37.025l-1.338.585a.853.853,0,1,0,.683,1.564l1.338-.585a.853.853,0,1,0-.683-1.564Z" transform="translate(-36.329 -16.6)"/>
    <path id="Caminho_86" data-name="Caminho 86" d="M52.063,61.99a.854.854,0,0,0-1.185.228L49.747,63.89a.853.853,0,0,0,1.414.955l1.131-1.671a.853.853,0,0,0-.228-1.184Z" transform="translate(-19.257 -29.353)"/>
    <path id="Caminho_87" data-name="Caminho 87" d="M62.52,96.3l-.711.585a.853.853,0,1,0,1.084,1.317l.711-.585A.853.853,0,1,0,62.52,96.3Z" transform="translate(-25.336 -46.902)"/>
    <path id="Caminho_88" data-name="Caminho 88" d="M78.46,71.18l-1.029-.671a.853.853,0,1,0-.932,1.429l1.029.671a.853.853,0,1,0,.932-1.429Z" transform="translate(-32.835 -33.722)"/>
    <path id="Caminho_89" data-name="Caminho 89" d="M91.023,18.929a.853.853,0,1,0-.758,1.529A26.525,26.525,0,0,1,96.2,24.391a.853.853,0,1,0,1.139-1.271A28.222,28.222,0,0,0,91.023,18.929Z" transform="translate(-39.845 -7.318)"/>
  </g>
</svg>
