<svg xmlns="http://www.w3.org/2000/svg" width="462.152" height="291.758" viewBox="0 0 462.152 291.758">
  <path id="Icon_awesome-shipping-fast" data-name="Icon awesome-shipping-fast" d="M449.623,199.9H438.094V138.507c0-7.212-3.675-14.14-10.16-19.251L355.951,62.524a39.768,39.768,0,0,0-24.427-8.007H299.749V27.259C299.749,12.21,284.257,0,265.162,0H80.7C61.607,0,46.115,12.21,46.115,27.259V54.517H5.764C2.594,54.517,0,56.561,0,59.06v9.086c0,2.5,2.594,4.543,5.764,4.543H201.754c3.17,0,5.764,2.044,5.764,4.543v9.086c0,2.5-2.594,4.543-5.764,4.543H28.822c-3.17,0-5.764,2.044-5.764,4.543v9.086c0,2.5,2.594,4.543,5.764,4.543H178.7c3.17,0,5.764,2.044,5.764,4.543v9.086c0,2.5-2.594,4.543-5.764,4.543H5.764c-3.17,0-5.764,2.044-5.764,4.543v9.086c0,2.5,2.594,4.543,5.764,4.543H155.639c3.17,0,5.764,2.044,5.764,4.543v9.086c0,2.5-2.594,4.543-5.764,4.543H46.115v72.689c0,30.1,30.984,54.517,69.173,54.517s69.173-24.419,69.173-54.517h92.23c0,30.1,30.984,54.517,69.173,54.517s69.173-24.419,69.173-54.517h34.586c6.341,0,11.529-4.089,11.529-9.086V208.982C461.152,203.985,455.964,199.9,449.623,199.9ZM115.288,263.5c-19.095,0-34.586-12.21-34.586-27.258s15.492-27.259,34.586-27.259,34.586,12.21,34.586,27.259S134.382,263.5,115.288,263.5Zm230.576,0c-19.095,0-34.586-12.21-34.586-27.258s15.492-27.259,34.586-27.259,34.586,12.21,34.586,27.259S364.958,263.5,345.864,263.5Zm57.644-118.12H299.749v-63.6h31.776l71.983,56.732Z" transform="translate(0.5 0.5)" fill="#ff9f0d" stroke="#fff" stroke-width="1"/>
</svg>
