<svg xmlns="http://www.w3.org/2000/svg" width="329" height="208.035" viewBox="0 0 329 208.035">
  <g id="Grupo_7" data-name="Grupo 7" transform="translate(-22 -93.145)">
    <g id="Componente_7_1" data-name="Componente 7 – 1" transform="translate(22 93.145)">
      <rect id="Retângulo_6" data-name="Retângulo 6" width="329" height="147" rx="49" transform="translate(0 60.855)" fill="rgba(249,168,37,0.27)"/>
      <g id="undraw_online_groceries_a02y" transform="translate(14.655 0)">
        <rect id="Retângulo_1" data-name="Retângulo 1" width="151.329" height="0.653" transform="translate(64.349 206.917)" fill="#3f3d56"/>
        <path id="Caminho_1" data-name="Caminho 1" d="M824.411,403.847a3.21,3.21,0,0,1-.628,4.726l-15.661,10.753-6.9,4.6a1.9,1.9,0,0,1-2.519-.377h0a1.9,1.9,0,0,1,.515-2.84l6.679-3.878,11.657-11.1-7.494-8.049,5.551-4.163Z" transform="translate(-636.975 -305.925)" fill="#a0616a"/>
        <path id="Caminho_2" data-name="Caminho 2" d="M531.661,612.813H527.83l-2.275-31.642,9.715-.278Z" transform="translate(-378.597 -415.641)" fill="#a0616a"/>
        <path id="Caminho_3" data-name="Caminho 3" d="M733.174,783.823c-1.021.466-1.877-3.311-2.739-2.464a9.263,9.263,0,0,1-9.318,1.85l1.126-.013a1.507,1.507,0,0,1-.95-1.963h0a1.507,1.507,0,0,1,1.045-.933l2.563-.641,4.025-7.078,4.109-.278h0a9.816,9.816,0,0,1,1.815,8.374C734.477,782.2,733.9,783.49,733.174,783.823Z" transform="translate(-579.725 -576.382)" fill="#2f2e41"/>
        <path id="Caminho_4" data-name="Caminho 4" d="M619.237,608.761h-3.831l-2.275-31.642,9.992-1.943Z" transform="translate(-441.694 -411.59)" fill="#a0616a"/>
        <path id="Caminho_5" data-name="Caminho 5" d="M820.75,783.147c-1.021.466-1.877-3.311-2.739-2.464a9.263,9.263,0,0,1-9.318,1.85l1.126-.013a1.507,1.507,0,0,1-.949-1.963h0a1.506,1.506,0,0,1,1.045-.933l2.563-.641,4.025-7.078,4.386-.555.111.181a11.309,11.309,0,0,1,1.212,9.247A3.868,3.868,0,0,1,820.75,783.147Z" transform="translate(-642.834 -575.706)" fill="#2f2e41"/>
        <path id="Caminho_6" data-name="Caminho 6" d="M830.439,369.629a7.758,7.758,0,0,0-6.955,6.268l-6.476-11.956a3.541,3.541,0,0,1,1.128-4.5h0a3.54,3.54,0,0,1,4.809.7Z" transform="translate(-648.545 -280.984)" fill="#f9a825"/>
        <path id="Caminho_7" data-name="Caminho 7" d="M769.83,511.316c-15.745,6.966-31.859,7.824-48.295,3.331,6-23.278,13.089-44.327,13.045-61.618l16.1-1.388,2.479,3.93a87.178,87.178,0,0,1,11.963,30.513Z" transform="translate(-582.584 -348.046)" fill="#2f2e41"/>
        <circle id="Elipse_1" data-name="Elipse 1" cx="8.327" cy="8.327" r="8.327" transform="translate(154.47 54.278)" fill="#a0616a"/>
        <path id="Caminho_8" data-name="Caminho 8" d="M584.184,244.971l-10.269.555-1.665-9.159,8.327-1.388Z" transform="translate(-412.304 -167.877)" fill="#a0616a"/>
        <path id="Caminho_9" data-name="Caminho 9" d="M776.109,378.738l-11.251.317-5.68.793c-2.788-9.21-5.135-18.4.555-26.09l6.661-6.661,9.992-.278.132.076a8.046,8.046,0,0,1,3.687,9.361C777.725,364.314,776.133,371.923,776.109,378.738Z" transform="translate(-605.368 -272.556)" fill="#ffd063"/>
        <path id="Caminho_10" data-name="Caminho 10" d="M753.346,441.022l-.7,9.538a2.125,2.125,0,0,1-1.978,1.965h0a2.125,2.125,0,0,1-2.265-2.17l.222-9.332,6.939-26.368.278-16.1,7.772-.278-.555,18.6Z" transform="translate(-599.426 -309.627)" fill="#a0616a"/>
        <path id="Caminho_11" data-name="Caminho 11" d="M781.2,366.568a7.758,7.758,0,0,0-9.159,1.943l.382-13.592a3.54,3.54,0,0,1,3.228-3.327h0a3.54,3.54,0,0,1,3.81,3.017Z" transform="translate(-616.272 -275.819)" fill="#f9a825"/>
        <path id="Caminho_12" data-name="Caminho 12" d="M795.193,311.082H769.658c5.957-15.774,7.878-30.449,0-43.021.135-3.776,4.979-7.05,8.74-6.688h0c4.442.427,10.412,3.692,11.244,8.076Z" transform="translate(-615.087 -211.545)" fill="#2f2e41"/>
        <path id="Caminho_13" data-name="Caminho 13" d="M320.735,135.548H319.57V104.234A18.3,18.3,0,0,0,301.1,86.111H233.5a18.3,18.3,0,0,0-18.467,18.123V276.022A18.3,18.3,0,0,0,233.5,294.146h67.6a18.3,18.3,0,0,0,18.467-18.123V157.837h1.165Z" transform="translate(-215.038 -86.111)" fill="#3f3d56"/>
        <path id="Caminho_14" data-name="Caminho 14" d="M314.248,102.606h-8.824a6.318,6.318,0,0,1-.629,6.01,6.588,6.588,0,0,1-5.438,2.841H260.631a6.588,6.588,0,0,1-5.437-2.84,6.318,6.318,0,0,1-.629-6.01h-8.241a13.658,13.658,0,0,0-13.791,13.522V287.51a13.658,13.658,0,0,0,13.791,13.522h67.924a13.658,13.658,0,0,0,13.791-13.522V116.128a13.658,13.658,0,0,0-13.791-13.522Z" transform="translate(-227.438 -97.802)" fill="#fff"/>
        <rect id="Retângulo_2" data-name="Retângulo 2" width="71.651" height="61.457" transform="translate(17.023 31.267)" fill="#e6e6e6"/>
        <circle id="Elipse_2" data-name="Elipse 2" cx="5.243" cy="5.243" r="5.243" transform="translate(33.042 94.018)" fill="#f9a825"/>
        <path id="Caminho_15" data-name="Caminho 15" d="M127.688,340.419H125.5v-2.185h-.874v2.185h-2.184v.874h2.184v2.185h.874v-2.185h2.184Z" transform="translate(-86.781 -241.597)" fill="#fff"/>
        <circle id="Elipse_3" data-name="Elipse 3" cx="5.243" cy="5.243" r="5.243" transform="translate(58.277 94.018)" fill="#f9a825"/>
        <rect id="Retângulo_3" data-name="Retângulo 3" width="0.874" height="5.243" transform="translate(66.097 98.82) rotate(90)" fill="#fff"/>
        <path id="Caminho_16" data-name="Caminho 16" d="M390.053,222.66H384.39a.751.751,0,0,0-.751.751V225.9a.751.751,0,0,0,.751.751h.938v3.724h3.786v-3.724h.938a.751.751,0,0,0,.751-.751v-2.485a.751.751,0,0,0-.751-.75Z" transform="translate(-336.472 -183.655)" fill="#efbc6b"/>
        <path id="Caminho_17" data-name="Caminho 17" d="M383.041,254.651a29.111,29.111,0,0,1-5.064-17.259.614.614,0,0,0-.479-.613v-1.074h-5.98v1.059h-.082a.614.614,0,0,0-.613.614c0,.015,0,.03,0,.045a26.567,26.567,0,0,1-4.773,17.668,1.691,1.691,0,0,0-.306,1.025l.654,20.227a1.751,1.751,0,0,0,1.736,1.69h13.526a1.752,1.752,0,0,0,1.737-1.72l.252-19.639A3.544,3.544,0,0,0,383.041,254.651Z" transform="translate(-323.673 -193.146)" fill="#3f3d56"/>
        <path id="Caminho_18" data-name="Caminho 18" d="M393.723,225.44a1.62,1.62,0,0,1-3.239,0" transform="translate(-341.365 -184.858)" opacity="0.2"/>
        <path id="Caminho_19" data-name="Caminho 19" d="M386.189,314.953h-1.638a4.3,4.3,0,0,0-8.5,0h-1.638a1.209,1.209,0,0,0-1.195,1.393L375,327.91h10.216l2.161-11.525a1.209,1.209,0,0,0-1.188-1.431Z" transform="translate(-329.018 -247.04)" fill="#efbc6b"/>
        <rect id="Retângulo_4" data-name="Retângulo 4" width="71.651" height="61.457" transform="translate(17.023 115.507)" fill="#e6e6e6"/>
        <circle id="Elipse_4" data-name="Elipse 4" cx="5.243" cy="5.243" r="5.243" transform="translate(33.042 178.459)" fill="#f9a825"/>
        <path id="Caminho_20" data-name="Caminho 20" d="M127.688,637.419H125.5v-2.185h-.874v2.185h-2.184v.874h2.184v2.185h.874v-2.185h2.184Z" transform="translate(-86.781 -454.154)" fill="#fff"/>
        <circle id="Elipse_5" data-name="Elipse 5" cx="5.243" cy="5.243" r="5.243" transform="translate(58.277 178.459)" fill="#f9a825"/>
        <rect id="Retângulo_5" data-name="Retângulo 5" width="0.874" height="5.243" transform="translate(66.097 183.264) rotate(90)" fill="#fff"/>
        <path id="Caminho_21" data-name="Caminho 21" d="M357.13,559.88h.04a6.711,6.711,0,0,0,6.283-4.209A21.966,21.966,0,1,0,334.19,567.7a6.653,6.653,0,0,0,7.389-1.37A21.893,21.893,0,0,1,357.13,559.88Z" transform="translate(-290.176 -400.587)" fill="#fff"/>
        <circle id="Elipse_6" data-name="Elipse 6" cx="7.254" cy="7.254" r="7.254" transform="translate(46.436 138.298)" fill="#f9a825"/>
      </g>
    </g>
  </g>
</svg>
