<svg xmlns="http://www.w3.org/2000/svg" width="30" height="25" viewBox="0 0 30 25">
  <g id="icon_1_" data-name="icon (1)" transform="translate(-0.001)">
    <g id="Grupo_1" data-name="Grupo 1" transform="translate(0.477 0.476)">
      <path id="Caminho_22" data-name="Caminho 22" d="M97.5,16.3c.7,0,1.265-.429,1.265-.952,0-2.953-5.1-5.346-11.381-5.346S76,12.394,76,15.346c0,.524.569.952,1.265.952Zm0,0" transform="translate(-72.857 -10)" fill="#ffd89e" fill-rule="evenodd"/>
      <path id="Caminho_23" data-name="Caminho 23" d="M58.948,142.27H37.208a.979.979,0,1,0,0,1.9h2.416c1.556,0,1.664.74,3.221.74s1.664-.74,3.221-.74,1.664.74,3.221.74,1.664-.74,3.221-.74,1.664.74,3.221.74,1.664-.74,3.221-.74h2.416a.979.979,0,1,0,0-1.9Zm0,0" transform="translate(-34.762 -134.051)" fill="#ffc059" fill-rule="evenodd"/>
      <path id="Caminho_24" data-name="Caminho 24" d="M90.753,182.27c-1.629,0-1.743.74-3.372.74s-1.743-.74-3.372-.74-1.743.74-3.372.74-1.742-.74-3.372-.74c-.7,0-1.265.429-1.265.952v.844c0,.524.569.952,1.265.952H97.5c.7,0,1.265-.428,1.265-.952v-.844c0-.524-.569-.952-1.265-.952-1.629,0-1.743.74-3.372.74S92.383,182.27,90.753,182.27Zm0,0" transform="translate(-72.857 -171.55)" fill="#f5828c" fill-rule="evenodd"/>
      <path id="Caminho_25" data-name="Caminho 25" d="M58.948,240H37.208a.979.979,0,1,0,0,1.9H61.364a.979.979,0,1,0,0-1.9H58.948Zm0,0" transform="translate(-34.762 -225.849)" fill="#78d0a9" fill-rule="evenodd"/>
      <path id="Caminho_26" data-name="Caminho 26" d="M98.762,280H76v1.9c0,1.048,1.138,1.9,2.529,1.9h17.7c1.391,0,2.529-.857,2.529-1.9Zm0,0" transform="translate(-72.857 -262.143)" fill="#ffd89e" fill-rule="evenodd"/>
      <path id="Caminho_27" data-name="Caminho 27" d="M32.789,360H11.476a1.218,1.218,0,1,0,0,2.381h26.1a1.218,1.218,0,1,0,0-2.381Zm0,0" transform="translate(-10 -338.333)" fill="#dca98a" fill-rule="evenodd"/>
    </g>
    <path id="Caminho_28" data-name="Caminho 28" d="M151.476,133.222a.476.476,0,1,0,0-.952h0a.476.476,0,1,0,0,.952Zm0,0" transform="translate(-142.085 -124.318)"/>
    <path id="Caminho_29" data-name="Caminho 29" d="M27.95,20.833h-2.4a2.991,2.991,0,0,0,.588-1.786V17.262h.586a1.786,1.786,0,0,0,0-3.571h-.687a1.8,1.8,0,0,0,.1-.6V12.04a1.8,1.8,0,0,0-.1-.6h.687a1.786,1.786,0,0,0,0-3.571h-.687a1.8,1.8,0,0,0,.1-.6c0-2-1.195-3.856-3.365-5.23A14.675,14.675,0,0,0,15,0,14.675,14.675,0,0,0,7.233,2.048C5.063,3.422,3.868,5.28,3.868,7.278a1.8,1.8,0,0,0,.1.6H3.282a1.786,1.786,0,0,0,0,3.571h.687a1.8,1.8,0,0,0-.1.6V13.1a1.8,1.8,0,0,0,.1.6H3.282a1.786,1.786,0,0,0,0,3.571h.586v1.786a2.991,2.991,0,0,0,.588,1.786h-2.4a2.084,2.084,0,0,0,0,4.167h25.9a2.084,2.084,0,0,0,0-4.167ZM2.7,9.659a.591.591,0,0,1,.586-.6H6.8a.6.6,0,0,0,0-1.19H5.625a.591.591,0,0,1-.586-.6c0-1.572,1-3.071,2.813-4.22A13.513,13.513,0,0,1,15,1.191a13.512,13.512,0,0,1,7.148,1.867c1.814,1.15,2.813,2.648,2.813,4.22a.591.591,0,0,1-.586.6h-12.3a.6.6,0,0,0,0,1.19H26.719a.6.6,0,0,1,0,1.19H24.375a3.359,3.359,0,0,0-1.85.539,2.3,2.3,0,0,1-2.55,0,3.444,3.444,0,0,0-3.7,0,2.3,2.3,0,0,1-2.549,0,3.444,3.444,0,0,0-3.7,0,2.3,2.3,0,0,1-2.55,0,3.359,3.359,0,0,0-1.85-.539H3.282a.591.591,0,0,1-.586-.6ZM5.04,13.1V12.04a.591.591,0,0,1,.586-.6A2.213,2.213,0,0,1,6.9,11.83a3.444,3.444,0,0,0,3.7,0,2.3,2.3,0,0,1,2.55,0,3.444,3.444,0,0,0,3.7,0,2.3,2.3,0,0,1,2.55,0,3.444,3.444,0,0,0,3.7,0,2.213,2.213,0,0,1,1.275-.386.591.591,0,0,1,.586.6V13.1a.591.591,0,0,1-.586.6H5.625a.591.591,0,0,1-.586-.6Zm0,5.952V17.262H19.1a.6.6,0,0,0,0-1.19H3.282a.6.6,0,0,1,0-1.19H26.719a.6.6,0,0,1,0,1.19H24.375a.6.6,0,0,0,0,1.19h.586v1.786A1.774,1.774,0,0,1,23.2,20.833H6.8A1.774,1.774,0,0,1,5.04,19.048ZM27.95,23.81H2.051a.893.893,0,0,1,0-1.786h25.9a.893.893,0,0,1,0,1.786Zm0,0" transform="translate(0)"/>
    <path id="Caminho_30" data-name="Caminho 30" d="M321.476,62.953a.476.476,0,1,0-.476-.476h0A.476.476,0,0,0,321.476,62.953Zm0,0" transform="translate(-302.048 -59.048)"/>
    <path id="Caminho_31" data-name="Caminho 31" d="M250.476,82.953a.476.476,0,1,0-.476-.476h0A.476.476,0,0,0,250.476,82.953Zm0,0" transform="translate(-235.24 -77.07)"/>
    <path id="Caminho_32" data-name="Caminho 32" d="M183.476,61.953a.476.476,0,1,0-.476-.476h0A.476.476,0,0,0,183.476,61.953Zm0,0" transform="translate(-172.195 -58.095)"/>
    <path id="Caminho_33" data-name="Caminho 33" d="M361.477,270h0a.476.476,0,1,0,.477.476A.476.476,0,0,0,361.476,270Zm0,0" transform="translate(-339.686 -253.768)"/>
  </g>
</svg>
