<svg xmlns="http://www.w3.org/2000/svg" width="77.08" height="77.08" viewBox="0 0 77.08 77.08">
  <path id="Icon_awesome-phone-alt" data-name="Icon awesome-phone-alt" d="M74.881,54.468,58.02,47.242A3.613,3.613,0,0,0,53.8,48.28L46.337,57.4A55.8,55.8,0,0,1,19.662,30.728l9.123-7.467a3.6,3.6,0,0,0,1.039-4.215L22.6,2.184A3.637,3.637,0,0,0,18.457.091L2.8,3.7A3.613,3.613,0,0,0,0,7.226,69.847,69.847,0,0,0,69.855,77.08a3.613,3.613,0,0,0,3.523-2.8l3.613-15.657a3.657,3.657,0,0,0-2.109-4.155Z" transform="translate(0 0)" fill="#ff9f0d"/>
</svg>
