<svg xmlns="http://www.w3.org/2000/svg" width="211.975" height="296.765" viewBox="0 0 211.975 296.765">
  <path id="Icon_material-touch-app" data-name="Icon material-touch-app" d="M67.185,120.945V68.093a35.329,35.329,0,1,1,70.658,0v52.852a63.593,63.593,0,1,0-70.658,0Zm139.056,65.43-64.158-31.938a19.9,19.9,0,0,0-7.631-1.555h-10.74V68.093a21.2,21.2,0,1,0-42.4,0V219.867L32.845,209.692a24.7,24.7,0,0,0-3.392-.424,15.809,15.809,0,0,0-11.164,4.663L7.125,225.237l69.81,69.81a21.272,21.272,0,0,0,14.98,6.218h95.954c10.6,0,18.8-7.772,20.35-18.089l10.6-74.474a20.311,20.311,0,0,0-12.577-22.328Z" transform="translate(-7.125 -4.5)" fill="#ff9f0d"/>
</svg>
