<svg xmlns="http://www.w3.org/2000/svg" width="209.998" height="179.242" viewBox="0 0 209.998 179.242">
  <path id="Icon_map-food" data-name="Icon map-food" d="M196.849,46.26,180.735,165.554H126.308L110.259,45.664h66.447L189.839,2.825l7.445,2.119-12.6,41.227,12.166.089Zm-94.285,69.018s2.035-15.47-26.188-15.47H31.429c-28.182,0-26.188,15.47-26.188,15.47h97.323ZM5.241,150.084s-1.994,15.47,26.188,15.47H76.381c28.223,0,26.188-15.47,26.188-15.47H5.241Zm93.1-7.735c4.619,0,8.35-4.308,8.35-9.665,0-5.387-3.731-9.672-8.35-9.672H9.074c-4.6,0-8.354,4.285-8.354,9.672,0,5.356,3.755,9.665,8.354,9.665Z" transform="matrix(0.996, -0.087, 0.087, 0.996, -0.963, 14.381)" fill="#ff9f0d"/>
</svg>
